<?xml version="1.0" encoding="UTF-8" standalone="no"?>
<!-- Uploaded to: SVG Repo, www.svgrepo.com, Generator: SVG Repo Mixer Tools -->

<svg
   width="800px"
   height="800px"
   viewBox="0 0 24 24"
   fill="none"
   version="1.1"
   id="svg2"
   sodipodi:docname="folder.svg"
   inkscape:version="1.3.2 (091e20e, 2023-11-25)"
   xmlns:inkscape="http://www.inkscape.org/namespaces/inkscape"
   xmlns:sodipodi="http://sodipodi.sourceforge.net/DTD/sodipodi-0.dtd"
   xmlns="http://www.w3.org/2000/svg"
   xmlns:svg="http://www.w3.org/2000/svg">
  <defs
     id="defs2" />
  <sodipodi:namedview
     id="namedview2"
     pagecolor="#ffffff"
     bordercolor="#000000"
     borderopacity="0.25"
     inkscape:showpageshadow="2"
     inkscape:pageopacity="0.0"
     inkscape:pagecheckerboard="0"
     inkscape:deskcolor="#d1d1d1"
     inkscape:zoom="1.02"
     inkscape:cx="400"
     inkscape:cy="400"
     inkscape:window-width="1850"
     inkscape:window-height="1016"
     inkscape:window-x="1510"
     inkscape:window-y="27"
     inkscape:window-maximized="1"
     inkscape:current-layer="svg2" />
  <path
     id="path4"
     d="M 8.3189411,1.9317491 C 7.6782717,1.9316391 7.2554457,1.9315511 6.8883161,1.992921 5.2834677,2.2611907 3.9857436,3.3831533 3.6696446,4.8674718 3.5977346,5.2051614 3.5978136,5.5920853 3.5979836,6.1502647 v 6.2660743 c 0.00626,-0.0074 0.013412,-0.0141 0.019747,-0.02144 -0.086329,0.100126 -0.166432,0.205075 -0.238008,0.315527 -0.61019,0.9414 -0.358357,2.250423 0.145312,4.868321 0.36257,1.884598 0.543853,2.82681 1.1719924,3.452109 0.1629699,0.1623 0.3453387,0.306055 0.5433985,0.428555 0.7633492,0.472199 1.7767939,0.472207 3.8036719,0.472207 h 6.9554296 c 2.026898,0 3.040373,-8e-6 3.803672,-0.472207 0.1981,-0.1225 0.380399,-0.266255 0.543398,-0.428555 0.6281,-0.625299 0.809393,-1.567511 1.171993,-3.452109 0.503599,-2.617898 0.755511,-3.926921 0.145312,-4.868321 -0.07127,-0.11 -0.151028,-0.214536 -0.236953,-0.314296 0.0063,0.0073 0.01336,0.01397 0.01957,0.02133 V 9.6875108 c 0,-0.908919 -1.2e-5,-1.6630088 -0.08531,-2.2642382 -0.09,-0.6345194 -0.286309,-1.1969525 -0.755508,-1.6590821 -0.0765,-0.07538 -0.157275,-0.1469446 -0.241875,-0.2143945 -0.5118,-0.4078396 -1.125305,-0.5746027 -1.819805,-0.6519727 -0.669099,-0.07453 -1.512013,-0.074541 -2.545312,-0.074531 h -0.352676 c -0.982099,0 -1.334206,-0.00571 -1.653105,-0.08625 -0.1874,-0.04731 -0.367099,-0.1133535 -0.535899,-0.1965234 -0.2842,-0.1401099 -0.53194,-0.3512007 -1.227539,-0.9675 l -0.474082,-0.42 C 11.556306,2.9766288 11.420537,2.856199 11.274937,2.7492491 10.650238,2.2904896 9.8895967,2.013022 9.0932575,1.9470421 8.9078277,1.9316821 8.7186066,1.9317191 8.4353669,1.9317491 Z M 3.7766366,12.223976 c -0.017821,0.01764 -0.034342,0.03638 -0.05168,0.05443 0.017349,-0.01806 0.033847,-0.03679 0.05168,-0.05443 z m 17.4905854,2.93e-4 c 0.01767,0.01749 0.03408,0.03601 0.05127,0.05391 -0.01719,-0.01789 -0.03361,-0.03642 -0.05127,-0.05391 z m -10.785293,4.165137 h 4.079707 c 0.4224,0 0.764883,0.32373 0.764883,0.72293 0,0.399199 -0.342483,0.722871 -0.764883,0.722871 h -4.079707 c -0.422499,0 -0.764941,-0.323672 -0.764941,-0.722871 0,-0.3992 0.342442,-0.72293 0.764941,-0.72293 z"
     style="fill:none;stroke:#ffffff" />
  <path
     opacity="0.5"
     d="M3.5762 12.4846C3.68271 12.3586 3.80034 12.241 3.92792 12.1332C4.79888 11.3975 6.20667 11.3975 9.02227 11.3975H15.9777C18.7933 11.3975 20.2011 11.3975 21.0721 12.1332C21.2 12.2413 21.3179 12.3592 21.4247 12.4857V9.75579C21.4247 8.84687 21.4247 8.09279 21.3394 7.49156C21.2494 6.85704 21.0531 6.29458 20.5839 5.83245C20.5074 5.75707 20.4266 5.68552 20.342 5.61807C19.8302 5.21023 19.2167 5.04345 18.5222 4.96608C17.8531 4.89155 17.0102 4.89157 15.9769 4.89158L15.6242 4.89158C14.6421 4.89158 14.29 4.88587 13.9711 4.80533C13.7837 4.75802 13.604 4.69195 13.4352 4.60878C13.151 4.46867 12.9033 4.25762 12.2077 3.64132L11.7336 3.22128C11.5345 3.04489 11.3987 2.9245 11.2531 2.81755C10.6284 2.35879 9.86779 2.08132 9.07145 2.01534C8.88602 1.99998 8.6968 1.99999 8.41356 2.00002L8.29714 2.00001C7.65647 1.9999 7.23365 1.99983 6.86652 2.0612C5.26167 2.32947 3.96392 3.45143 3.64782 4.93575C3.57591 5.27344 3.57602 5.66035 3.57619 6.21853L3.5762 12.4846Z"
     fill="#1C274C"
     id="path2"
     style="fill:#546bbf;fill-opacity:0.99908304;opacity:0.99999999" />
  <path
     fill-rule="evenodd"
     clip-rule="evenodd"
     d="M3.35791 12.7787C2.74772 13.7201 2.99956 15.0291 3.50323 17.647C3.8658 19.5316 4.04709 20.4738 4.67523 21.0991C4.8382 21.2614 5.02054 21.4052 5.2186 21.5277C5.98195 21.9999 6.99539 21.9999 9.02227 21.9999H15.9777C18.0046 21.9999 19.0181 21.9999 19.7814 21.5277C19.9795 21.4052 20.1618 21.2614 20.3248 21.0991C20.9529 20.4738 21.1342 19.5316 21.4968 17.647C22.0004 15.0291 22.2523 13.7201 21.6421 12.7787C21.4864 12.5384 21.2943 12.321 21.0721 12.1332C20.2011 11.3975 18.7933 11.3975 15.9777 11.3975H9.02227C6.20667 11.3975 4.79888 11.3975 3.92792 12.1332C3.70566 12.321 3.51363 12.5384 3.35791 12.7787ZM9.69518 17.1806C9.69518 16.7814 10.0376 16.4577 10.4601 16.4577H14.5398C14.9622 16.4577 15.3047 16.7814 15.3047 17.1806C15.3047 17.5798 14.9622 17.9035 14.5398 17.9035H10.4601C10.0376 17.9035 9.69518 17.5798 9.69518 17.1806Z"
     fill="#1C274C"
     id="path1" />
  <path
     id="path3"
     d="M 8.297168 2.0000391 C 7.6564986 1.9999291 7.2336726 1.999841 6.866543 2.0612109 C 5.2616946 2.3294807 3.9639122 3.4514432 3.6478125 4.9357617 C 3.5759026 5.2734514 3.5760409 5.6603752 3.5762109 6.2185547 L 3.5762109 12.484629 C 3.5824693 12.477225 3.5896221 12.470529 3.595957 12.463184 C 3.5096274 12.563311 3.4294676 12.668257 3.3578906 12.778711 C 2.7477012 13.72011 2.9995336 15.029075 3.5032031 17.646973 C 3.8657728 19.531571 4.0471145 20.473783 4.6752539 21.099082 C 4.8382237 21.261382 5.0205339 21.405195 5.2185938 21.527695 C 5.981943 21.999895 6.9953877 21.999902 9.0222656 21.999902 L 15.977695 21.999902 C 18.004593 21.999902 19.018127 21.999895 19.781426 21.527695 C 19.979526 21.405195 20.161824 21.261382 20.324824 21.099082 C 20.952924 20.473783 21.134217 19.531571 21.496816 17.646973 C 22.000416 15.029075 22.252328 13.72011 21.642129 12.778711 C 21.570771 12.668581 21.490866 12.563928 21.404824 12.464062 C 21.411204 12.471467 21.418385 12.478219 21.424687 12.485684 L 21.424687 9.7558008 C 21.424687 8.8468817 21.424675 8.0927919 21.339375 7.4915625 C 21.249375 6.8570431 21.053125 6.2945514 20.583926 5.8324219 C 20.507426 5.757042 20.426592 5.6855359 20.341992 5.6180859 C 19.830193 5.2102463 19.216687 5.0434246 18.522187 4.9660547 C 17.853088 4.8915248 17.010174 4.891572 15.976875 4.891582 L 15.624199 4.891582 C 14.6421 4.891582 14.289993 4.885872 13.971094 4.805332 C 13.783694 4.7580221 13.603995 4.6919785 13.435195 4.6088086 C 13.150996 4.4686987 12.903314 4.257608 12.207715 3.6413086 L 11.733574 3.2213086 C 11.534474 3.0449188 11.398705 2.924489 11.253105 2.8175391 C 10.628406 2.3587795 9.867765 2.081312 9.0714258 2.015332 C 8.885996 1.999972 8.6967749 2.0000091 8.4135352 2.0000391 L 8.297168 2.0000391 z M 3.7552734 12.291797 C 3.7367358 12.310132 3.7195575 12.329616 3.701543 12.348398 C 3.7195654 12.329607 3.7367276 12.310142 3.7552734 12.291797 z M 21.245801 12.29291 C 21.263124 12.310065 21.279148 12.328273 21.296016 12.34582 C 21.279155 12.328283 21.263118 12.310056 21.245801 12.29291 z M 10.460098 16.457695 L 14.539805 16.457695 C 14.962204 16.457695 15.304687 16.781425 15.304688 17.180625 C 15.304688 17.579825 14.962204 17.903496 14.539805 17.903496 L 10.460098 17.903496 C 10.037598 17.903496 9.6951563 17.579825 9.6951563 17.180625 C 9.6951563 16.781425 10.037598 16.457695 10.460098 16.457695 z " />
</svg>
