<?xml version="1.0" encoding="UTF-8" standalone="no"?>
<!-- Uploaded to: SVG Repo, www.svgrepo.com, Generator: SVG Repo Mixer Tools -->

<svg
   width="800px"
   height="800px"
   viewBox="0 0 33 33"
   version="1.1"
   id="svg1"
   sodipodi:docname="link_url.svg"
   inkscape:version="1.3.2 (091e20e, 2023-11-25)"
   xmlns:inkscape="http://www.inkscape.org/namespaces/inkscape"
   xmlns:sodipodi="http://sodipodi.sourceforge.net/DTD/sodipodi-0.dtd"
   xmlns="http://www.w3.org/2000/svg"
   xmlns:svg="http://www.w3.org/2000/svg"
   xmlns:sketch="http://www.bohemiancoding.com/sketch/ns">
  <sodipodi:namedview
     id="namedview1"
     pagecolor="#ffffff"
     bordercolor="#000000"
     borderopacity="0.25"
     inkscape:showpageshadow="2"
     inkscape:pageopacity="0.0"
     inkscape:pagecheckerboard="0"
     inkscape:deskcolor="#d1d1d1"
     showgrid="false"
     inkscape:zoom="1.02"
     inkscape:cx="400"
     inkscape:cy="400"
     inkscape:window-width="1850"
     inkscape:window-height="1016"
     inkscape:window-x="1510"
     inkscape:window-y="27"
     inkscape:window-maximized="1"
     inkscape:current-layer="svg1" />
  <title
     id="title1">permalink</title>
  <desc
     id="desc1">Created with Sketch Beta.</desc>
  <defs
     id="defs1" />
  <g
     id="Page-1"
     stroke="none"
     stroke-width="1"
     fill="none"
     fill-rule="evenodd"
     sketch:type="MSPage"
     style="fill:#0000ff;stroke:#ffffff;stroke-width:0.31181102;stroke-dasharray:none">
    <g
       id="Icon-Set-Filled"
       sketch:type="MSLayerGroup"
       transform="translate(-154.000000, -724.000000)"
       fill="#000000"
       style="fill:#0000ff;stroke:#ffffff;stroke-width:0.31181102;stroke-dasharray:none">
      <path
         d="M184.785,727.613 L183.355,726.184 C181.775,724.604 178.58,724.42 177,726 L170,733 C168.944,734.056 169.095,735.881 169.451,737.228 L179,728 C179.79,727.21 181.21,728.21 182,729 C182.79,729.79 183.79,731.21 183,732 L173.741,741.518 C175.088,741.873 176.944,742.056 178,741 L185,734 C186.58,732.421 186.365,729.193 184.785,727.613 L184.785,727.613 Z M162,753 C161.21,753.79 159.79,752.79 159,752 C158.21,751.21 157.21,749.79 158,749 L167.228,739.451 C165.881,739.095 164.056,738.944 163,740 L156,747 C154.42,748.58 154.604,751.775 156.184,753.354 L157.614,754.785 C159.193,756.365 162.42,756.58 164,755 L171,748 C172.056,746.944 171.874,745.088 171.518,743.741 L162,753 L162,753 Z M173.702,737.282 C173.307,736.888 172.667,736.888 172.272,737.282 L167.267,742.287 C166.872,742.683 166.872,743.322 167.267,743.718 C167.662,744.112 168.302,744.112 168.697,743.718 L173.702,738.713 C174.097,738.317 174.097,737.678 173.702,737.282 L173.702,737.282 Z"
         id="permalink"
         sketch:type="MSShapeGroup"
         style="fill:#0000ff;stroke:#ffffff;stroke-width:0.31181102;stroke-dasharray:none" />
    </g>
  </g>
</svg>
