<!-- icon666.com - MILLIONS vector ICONS FREE --><svg version="1.1" id="Capa_1" xmlns="http://www.w3.org/2000/svg" xmlns:xlink="http://www.w3.org/1999/xlink" x="0px" y="0px" viewBox="0 0 512 512" style="enable-background:new 0 0 512 512;" xml:space="preserve"><g><path style="fill:#CFD8DC;" d="M335.123,12.117c-3.315-2.592-7.844-2.993-11.563-1.024l-219.243,115.84 C72.774,143.294,50.401,173.135,43.539,208l-11.328,56.533c-1.152,5.777,2.597,11.395,8.374,12.547 c2.325,0.464,4.738,0.14,6.858-0.921l256-128c2.772-1.386,4.804-3.909,5.568-6.912l29.867-118.144 C339.903,19.022,338.432,14.718,335.123,12.117z"></path><path style="fill:#CFD8DC;" d="M308.989,370.709c-0.764-3.003-2.796-5.526-5.568-6.912l-25.067-12.544 c-11.273-5.644-24.987-1.08-30.63,10.193c-1.589,3.174-2.416,6.674-2.415,10.223v3.328l-2.133,1.344l-18.709-9.365 c-2.057-1.031-3.726-2.7-4.757-4.757l-14.933-29.867c-3.086-6.19-8.103-11.207-14.293-14.293l-36.267-18.176 c-5.237-2.698-11.669-0.64-14.368,4.597c-0.774,1.501-1.18,3.165-1.184,4.854v30.336c0.006,24.671,12.199,47.746,32.576,61.653 l151.573,99.157c4.934,3.218,11.543,1.828,14.762-3.106c1.626-2.492,2.136-5.55,1.409-8.435L308.989,370.709z"></path></g><path style="fill:#F44336;" d="M362.664,0h42.667c41.237,0,74.667,33.429,74.667,74.667v362.667 c0,41.237-33.429,74.667-74.667,74.667h-42.667c-41.237,0-74.667-33.429-74.667-74.667V74.667C287.997,33.429,321.427,0,362.664,0z"></path><path style="fill:#B0BEC5;" d="M202.664,138.667c-5.891,0-10.666-4.776-10.666-10.667c0-4.036,2.279-7.727,5.887-9.535 l42.667-21.333c5.272-2.633,11.681-0.494,14.315,4.779c2.633,5.272,0.494,11.681-4.779,14.315l0,0l-42.667,21.333 C205.943,138.29,204.314,138.67,202.664,138.667z"></path><g><path style="fill:#FAFAFA;" d="M383.997,405.333c-5.891,0-10.667-4.776-10.667-10.667V352c0-5.891,4.776-10.667,10.667-10.667 c5.891,0,10.667,4.776,10.667,10.667v42.667C394.664,400.558,389.888,405.333,383.997,405.333z"></path><path style="fill:#FAFAFA;" d="M405.331,384h-42.667c-5.891,0-10.667-4.776-10.667-10.667s4.776-10.667,10.667-10.667h42.667 c5.891,0,10.667,4.776,10.667,10.667S411.222,384,405.331,384z"></path></g></svg>